<mxfile host="app.diagrams.net" modified="2023-11-06T09:09:14.073Z" agent="Mozilla/5.0 (Windows NT 10.0; Win64; x64) AppleWebKit/537.36 (KHTML, like Gecko) Chrome/119.0.0.0 Safari/537.36 Edg/119.0.0.0" etag="50xt-ZnL0IYrXmpHsj2O" version="22.0.8" type="github">
  <diagram name="Page-1" id="CThevkXcVfSVk2Hkg_zm">
    <mxGraphModel dx="1386" dy="1601" grid="1" gridSize="10" guides="1" tooltips="1" connect="1" arrows="1" fold="1" page="1" pageScale="1" pageWidth="1100" pageHeight="850" math="0" shadow="0">
      <root>
        <mxCell id="0" />
        <mxCell id="1" parent="0" />
        <mxCell id="GwhHAT8vdqStquLZt4F1-1" value="Người đọc trong trường" style="shape=umlActor;verticalLabelPosition=bottom;verticalAlign=top;html=1;" parent="1" vertex="1">
          <mxGeometry x="50" y="120" width="30" height="60" as="geometry" />
        </mxCell>
        <mxCell id="GwhHAT8vdqStquLZt4F1-3" value="Người đọc ngoài trường&lt;br&gt;" style="shape=umlActor;verticalLabelPosition=bottom;verticalAlign=top;html=1;" parent="1" vertex="1">
          <mxGeometry x="50" y="380" width="30" height="60" as="geometry" />
        </mxCell>
        <mxCell id="GwhHAT8vdqStquLZt4F1-9" value="Nhập sách" style="ellipse;whiteSpace=wrap;html=1;" parent="1" vertex="1">
          <mxGeometry x="160" y="910" width="120" height="50" as="geometry" />
        </mxCell>
        <mxCell id="GwhHAT8vdqStquLZt4F1-10" value="" style="ellipse;whiteSpace=wrap;html=1;" parent="1" vertex="1">
          <mxGeometry x="130" y="-190" width="120" height="80" as="geometry" />
        </mxCell>
        <mxCell id="GwhHAT8vdqStquLZt4F1-11" value="" style="ellipse;whiteSpace=wrap;html=1;" parent="1" vertex="1">
          <mxGeometry x="270" y="-120" width="120" height="80" as="geometry" />
        </mxCell>
        <mxCell id="GwhHAT8vdqStquLZt4F1-12" value="Xác thực thông tin&lt;br&gt;" style="ellipse;whiteSpace=wrap;html=1;" parent="1" vertex="1">
          <mxGeometry x="680" y="180" width="120" height="50" as="geometry" />
        </mxCell>
        <mxCell id="GwhHAT8vdqStquLZt4F1-13" value="Yêu cầu mượn sách" style="ellipse;whiteSpace=wrap;html=1;" parent="1" vertex="1">
          <mxGeometry x="295" y="110" width="120" height="50" as="geometry" />
        </mxCell>
        <mxCell id="GwhHAT8vdqStquLZt4F1-14" value="Đăng ký&lt;br&gt;" style="ellipse;whiteSpace=wrap;html=1;" parent="1" vertex="1">
          <mxGeometry x="300" y="660" width="120" height="40" as="geometry" />
        </mxCell>
        <mxCell id="GwhHAT8vdqStquLZt4F1-15" value="Trả sách&lt;br&gt;" style="ellipse;whiteSpace=wrap;html=1;" parent="1" vertex="1">
          <mxGeometry x="315" y="190" width="120" height="50" as="geometry" />
        </mxCell>
        <mxCell id="GwhHAT8vdqStquLZt4F1-16" value="Chọn sách" style="ellipse;whiteSpace=wrap;html=1;" parent="1" vertex="1">
          <mxGeometry x="475" y="110" width="120" height="50" as="geometry" />
        </mxCell>
        <mxCell id="GwhHAT8vdqStquLZt4F1-17" value="Chỉnh sủa thẻ" style="ellipse;whiteSpace=wrap;html=1;" parent="1" vertex="1">
          <mxGeometry x="325" y="360" width="120" height="50" as="geometry" />
        </mxCell>
        <mxCell id="GwhHAT8vdqStquLZt4F1-18" value="Báo mất thẻ&lt;br&gt;" style="ellipse;whiteSpace=wrap;html=1;" parent="1" vertex="1">
          <mxGeometry x="325" y="280" width="120" height="50" as="geometry" />
        </mxCell>
        <mxCell id="GwhHAT8vdqStquLZt4F1-23" value="Quản lý thư viện&lt;br&gt;" style="shape=umlActor;verticalLabelPosition=bottom;verticalAlign=top;html=1;" parent="1" vertex="1">
          <mxGeometry x="970" y="250" width="30" height="60" as="geometry" />
        </mxCell>
        <mxCell id="GwhHAT8vdqStquLZt4F1-29" value="{Nếu đã có thẻ thư viện}" style="text;html=1;strokeColor=none;fillColor=none;align=center;verticalAlign=middle;whiteSpace=wrap;rounded=0;rotation=-45;" parent="1" vertex="1">
          <mxGeometry x="80" y="280" width="150" height="30" as="geometry" />
        </mxCell>
        <mxCell id="GwhHAT8vdqStquLZt4F1-31" value="" style="endArrow=classic;html=1;rounded=0;exitX=1;exitY=0.3333333333333333;exitDx=0;exitDy=0;exitPerimeter=0;entryX=0;entryY=0.372;entryDx=0;entryDy=0;entryPerimeter=0;" parent="1" source="GwhHAT8vdqStquLZt4F1-3" target="GwhHAT8vdqStquLZt4F1-14" edge="1">
          <mxGeometry width="50" height="50" relative="1" as="geometry">
            <mxPoint x="130" y="370" as="sourcePoint" />
            <mxPoint x="180" y="320" as="targetPoint" />
          </mxGeometry>
        </mxCell>
        <mxCell id="GwhHAT8vdqStquLZt4F1-32" value="" style="endArrow=classic;html=1;rounded=0;exitX=1;exitY=0.3333333333333333;exitDx=0;exitDy=0;exitPerimeter=0;entryX=0;entryY=1;entryDx=0;entryDy=0;" parent="1" source="GwhHAT8vdqStquLZt4F1-3" target="GwhHAT8vdqStquLZt4F1-13" edge="1">
          <mxGeometry width="50" height="50" relative="1" as="geometry">
            <mxPoint x="90" y="410" as="sourcePoint" />
            <mxPoint x="210" y="640" as="targetPoint" />
          </mxGeometry>
        </mxCell>
        <mxCell id="GwhHAT8vdqStquLZt4F1-33" value="" style="endArrow=classic;html=1;rounded=0;exitX=1;exitY=0.3333333333333333;exitDx=0;exitDy=0;exitPerimeter=0;entryX=0;entryY=0.5;entryDx=0;entryDy=0;" parent="1" source="GwhHAT8vdqStquLZt4F1-1" target="GwhHAT8vdqStquLZt4F1-13" edge="1">
          <mxGeometry width="50" height="50" relative="1" as="geometry">
            <mxPoint x="90" y="410" as="sourcePoint" />
            <mxPoint x="238" y="178" as="targetPoint" />
          </mxGeometry>
        </mxCell>
        <mxCell id="GwhHAT8vdqStquLZt4F1-35" value="" style="endArrow=classic;html=1;rounded=0;entryX=0;entryY=0.3333333333333333;entryDx=0;entryDy=0;entryPerimeter=0;exitX=1;exitY=0.5;exitDx=0;exitDy=0;" parent="1" source="GwhHAT8vdqStquLZt4F1-12" target="GwhHAT8vdqStquLZt4F1-23" edge="1">
          <mxGeometry width="50" height="50" relative="1" as="geometry">
            <mxPoint x="520" y="410" as="sourcePoint" />
            <mxPoint x="570" y="360" as="targetPoint" />
          </mxGeometry>
        </mxCell>
        <mxCell id="GwhHAT8vdqStquLZt4F1-36" value="" style="endArrow=classic;html=1;rounded=0;exitX=1;exitY=0.3333333333333333;exitDx=0;exitDy=0;exitPerimeter=0;entryX=0;entryY=0.5;entryDx=0;entryDy=0;" parent="1" source="GwhHAT8vdqStquLZt4F1-3" target="GwhHAT8vdqStquLZt4F1-15" edge="1">
          <mxGeometry width="50" height="50" relative="1" as="geometry">
            <mxPoint x="520" y="410" as="sourcePoint" />
            <mxPoint x="570" y="360" as="targetPoint" />
          </mxGeometry>
        </mxCell>
        <mxCell id="GwhHAT8vdqStquLZt4F1-39" value="" style="endArrow=classic;html=1;rounded=0;exitX=1;exitY=0.3;exitDx=0;exitDy=0;exitPerimeter=0;entryX=0;entryY=0.5;entryDx=0;entryDy=0;" parent="1" source="GwhHAT8vdqStquLZt4F1-15" target="GwhHAT8vdqStquLZt4F1-12" edge="1">
          <mxGeometry width="50" height="50" relative="1" as="geometry">
            <mxPoint x="455" y="370" as="sourcePoint" />
            <mxPoint x="605" y="310" as="targetPoint" />
          </mxGeometry>
        </mxCell>
        <mxCell id="GwhHAT8vdqStquLZt4F1-40" value="" style="endArrow=classic;html=1;rounded=0;exitX=1;exitY=0.5;exitDx=0;exitDy=0;" parent="1" source="GwhHAT8vdqStquLZt4F1-14" target="GwhHAT8vdqStquLZt4F1-23" edge="1">
          <mxGeometry width="50" height="50" relative="1" as="geometry">
            <mxPoint x="520" y="410" as="sourcePoint" />
            <mxPoint x="570" y="360" as="targetPoint" />
          </mxGeometry>
        </mxCell>
        <mxCell id="GwhHAT8vdqStquLZt4F1-41" value="" style="endArrow=classic;html=1;rounded=0;exitX=1;exitY=0.3333333333333333;exitDx=0;exitDy=0;exitPerimeter=0;entryX=-0.025;entryY=0.425;entryDx=0;entryDy=0;entryPerimeter=0;" parent="1" source="GwhHAT8vdqStquLZt4F1-1" target="GwhHAT8vdqStquLZt4F1-15" edge="1">
          <mxGeometry width="50" height="50" relative="1" as="geometry">
            <mxPoint x="520" y="410" as="sourcePoint" />
            <mxPoint x="570" y="360" as="targetPoint" />
          </mxGeometry>
        </mxCell>
        <mxCell id="LSdpsTNp0pVtHRdQV1VZ-1" value="" style="endArrow=classic;html=1;rounded=0;entryX=0;entryY=0.5;entryDx=0;entryDy=0;exitX=1;exitY=0.5;exitDx=0;exitDy=0;" edge="1" parent="1" source="GwhHAT8vdqStquLZt4F1-16" target="GwhHAT8vdqStquLZt4F1-12">
          <mxGeometry width="50" height="50" relative="1" as="geometry">
            <mxPoint x="595" y="500" as="sourcePoint" />
            <mxPoint x="645" y="450" as="targetPoint" />
          </mxGeometry>
        </mxCell>
        <mxCell id="LSdpsTNp0pVtHRdQV1VZ-2" value="" style="endArrow=classic;html=1;rounded=0;entryX=0;entryY=0.5;entryDx=0;entryDy=0;exitX=1;exitY=0.5;exitDx=0;exitDy=0;" edge="1" parent="1" source="GwhHAT8vdqStquLZt4F1-13" target="GwhHAT8vdqStquLZt4F1-16">
          <mxGeometry width="50" height="50" relative="1" as="geometry">
            <mxPoint x="355" y="159.5" as="sourcePoint" />
            <mxPoint x="475" y="159.5" as="targetPoint" />
          </mxGeometry>
        </mxCell>
        <mxCell id="LSdpsTNp0pVtHRdQV1VZ-3" value="Gửi phản hồi" style="ellipse;whiteSpace=wrap;html=1;" vertex="1" parent="1">
          <mxGeometry x="320" y="470" width="120" height="60" as="geometry" />
        </mxCell>
        <mxCell id="LSdpsTNp0pVtHRdQV1VZ-4" value="Gửi mail" style="ellipse;whiteSpace=wrap;html=1;" vertex="1" parent="1">
          <mxGeometry x="320" y="570" width="120" height="50" as="geometry" />
        </mxCell>
        <mxCell id="LSdpsTNp0pVtHRdQV1VZ-5" value="" style="endArrow=classic;html=1;rounded=0;entryX=0.5;entryY=0;entryDx=0;entryDy=0;exitX=0.5;exitY=1;exitDx=0;exitDy=0;" edge="1" parent="1" source="LSdpsTNp0pVtHRdQV1VZ-3" target="LSdpsTNp0pVtHRdQV1VZ-4">
          <mxGeometry width="50" height="50" relative="1" as="geometry">
            <mxPoint x="610" y="420" as="sourcePoint" />
            <mxPoint x="660" y="370" as="targetPoint" />
          </mxGeometry>
        </mxCell>
        <mxCell id="LSdpsTNp0pVtHRdQV1VZ-6" value="" style="endArrow=classic;html=1;rounded=0;exitX=0.533;exitY=0.633;exitDx=0;exitDy=0;exitPerimeter=0;entryX=0;entryY=0.5;entryDx=0;entryDy=0;" edge="1" parent="1" source="GwhHAT8vdqStquLZt4F1-3" target="GwhHAT8vdqStquLZt4F1-18">
          <mxGeometry width="50" height="50" relative="1" as="geometry">
            <mxPoint x="520" y="490" as="sourcePoint" />
            <mxPoint x="570" y="440" as="targetPoint" />
          </mxGeometry>
        </mxCell>
        <mxCell id="LSdpsTNp0pVtHRdQV1VZ-7" value="" style="endArrow=classic;html=1;rounded=0;entryX=0;entryY=0.5;entryDx=0;entryDy=0;" edge="1" parent="1" target="GwhHAT8vdqStquLZt4F1-17">
          <mxGeometry width="50" height="50" relative="1" as="geometry">
            <mxPoint x="80" y="440" as="sourcePoint" />
            <mxPoint x="260" y="305" as="targetPoint" />
          </mxGeometry>
        </mxCell>
        <mxCell id="LSdpsTNp0pVtHRdQV1VZ-8" value="&amp;lt;&amp;lt;include&amp;gt;&amp;gt;" style="text;html=1;strokeColor=none;fillColor=none;align=center;verticalAlign=middle;whiteSpace=wrap;rounded=0;" vertex="1" parent="1">
          <mxGeometry x="390" y="530" width="60" height="30" as="geometry" />
        </mxCell>
        <mxCell id="LSdpsTNp0pVtHRdQV1VZ-9" value="" style="endArrow=classic;html=1;rounded=0;entryX=0.5;entryY=0.5;entryDx=0;entryDy=0;entryPerimeter=0;exitX=1;exitY=0.5;exitDx=0;exitDy=0;" edge="1" parent="1" source="GwhHAT8vdqStquLZt4F1-18" target="GwhHAT8vdqStquLZt4F1-23">
          <mxGeometry width="50" height="50" relative="1" as="geometry">
            <mxPoint x="470" y="310" as="sourcePoint" />
            <mxPoint x="700" y="345" as="targetPoint" />
          </mxGeometry>
        </mxCell>
        <mxCell id="LSdpsTNp0pVtHRdQV1VZ-10" value="" style="endArrow=classic;html=1;rounded=0;entryX=0.5;entryY=0.5;entryDx=0;entryDy=0;entryPerimeter=0;exitX=1;exitY=0.5;exitDx=0;exitDy=0;" edge="1" parent="1" source="GwhHAT8vdqStquLZt4F1-17" target="GwhHAT8vdqStquLZt4F1-23">
          <mxGeometry width="50" height="50" relative="1" as="geometry">
            <mxPoint x="380" y="305" as="sourcePoint" />
            <mxPoint x="995" y="290" as="targetPoint" />
          </mxGeometry>
        </mxCell>
        <mxCell id="LSdpsTNp0pVtHRdQV1VZ-16" value="" style="endArrow=classic;html=1;rounded=0;exitX=1;exitY=1;exitDx=0;exitDy=0;exitPerimeter=0;entryX=0;entryY=0.5;entryDx=0;entryDy=0;" edge="1" parent="1" source="GwhHAT8vdqStquLZt4F1-3" target="LSdpsTNp0pVtHRdQV1VZ-3">
          <mxGeometry width="50" height="50" relative="1" as="geometry">
            <mxPoint x="520" y="640" as="sourcePoint" />
            <mxPoint x="570" y="590" as="targetPoint" />
          </mxGeometry>
        </mxCell>
        <mxCell id="LSdpsTNp0pVtHRdQV1VZ-18" value="Quản lý thư viện&lt;br&gt;" style="shape=umlActor;verticalLabelPosition=bottom;verticalAlign=top;html=1;" vertex="1" parent="1">
          <mxGeometry x="40" y="1020" width="30" height="60" as="geometry" />
        </mxCell>
        <mxCell id="LSdpsTNp0pVtHRdQV1VZ-19" value="Cập nhật sách" style="ellipse;whiteSpace=wrap;html=1;" vertex="1" parent="1">
          <mxGeometry x="230" y="1000" width="120" height="50" as="geometry" />
        </mxCell>
        <mxCell id="LSdpsTNp0pVtHRdQV1VZ-20" value="Xóa sách và tài liệu" style="ellipse;whiteSpace=wrap;html=1;" vertex="1" parent="1">
          <mxGeometry x="260" y="1090" width="120" height="50" as="geometry" />
        </mxCell>
        <mxCell id="LSdpsTNp0pVtHRdQV1VZ-21" value="Nhập sách" style="ellipse;whiteSpace=wrap;html=1;" vertex="1" parent="1">
          <mxGeometry x="230" y="1180" width="120" height="50" as="geometry" />
        </mxCell>
        <mxCell id="LSdpsTNp0pVtHRdQV1VZ-22" value="Kiểm tra sách" style="ellipse;whiteSpace=wrap;html=1;" vertex="1" parent="1">
          <mxGeometry x="160" y="1270" width="120" height="50" as="geometry" />
        </mxCell>
        <mxCell id="LSdpsTNp0pVtHRdQV1VZ-23" value="Xác định lý do" style="ellipse;whiteSpace=wrap;html=1;" vertex="1" parent="1">
          <mxGeometry x="430" y="1040" width="120" height="50" as="geometry" />
        </mxCell>
        <mxCell id="LSdpsTNp0pVtHRdQV1VZ-24" value="Ghi nhận thông tin sach" style="ellipse;whiteSpace=wrap;html=1;" vertex="1" parent="1">
          <mxGeometry x="445" y="1160" width="120" height="50" as="geometry" />
        </mxCell>
        <mxCell id="LSdpsTNp0pVtHRdQV1VZ-26" value="" style="endArrow=block;dashed=1;endFill=0;endSize=12;html=1;rounded=0;entryX=1;entryY=0.5;entryDx=0;entryDy=0;exitX=0;exitY=0.5;exitDx=0;exitDy=0;" edge="1" parent="1" source="LSdpsTNp0pVtHRdQV1VZ-24" target="LSdpsTNp0pVtHRdQV1VZ-20">
          <mxGeometry width="160" relative="1" as="geometry">
            <mxPoint x="470" y="1200" as="sourcePoint" />
            <mxPoint x="630" y="1200" as="targetPoint" />
          </mxGeometry>
        </mxCell>
        <mxCell id="LSdpsTNp0pVtHRdQV1VZ-27" value="" style="endArrow=block;dashed=1;endFill=0;endSize=12;html=1;rounded=0;entryX=1;entryY=0.5;entryDx=0;entryDy=0;exitX=0;exitY=0.5;exitDx=0;exitDy=0;" edge="1" parent="1" source="LSdpsTNp0pVtHRdQV1VZ-23" target="LSdpsTNp0pVtHRdQV1VZ-20">
          <mxGeometry width="160" relative="1" as="geometry">
            <mxPoint x="440" y="1175" as="sourcePoint" />
            <mxPoint x="390" y="1125" as="targetPoint" />
          </mxGeometry>
        </mxCell>
        <mxCell id="LSdpsTNp0pVtHRdQV1VZ-28" value="" style="endArrow=classic;html=1;rounded=0;entryX=0;entryY=0.5;entryDx=0;entryDy=0;" edge="1" parent="1" source="LSdpsTNp0pVtHRdQV1VZ-18" target="LSdpsTNp0pVtHRdQV1VZ-20">
          <mxGeometry width="50" height="50" relative="1" as="geometry">
            <mxPoint x="520" y="1220" as="sourcePoint" />
            <mxPoint x="570" y="1170" as="targetPoint" />
          </mxGeometry>
        </mxCell>
        <mxCell id="LSdpsTNp0pVtHRdQV1VZ-29" value="&amp;lt;&amp;lt;include&amp;gt;&amp;gt;" style="text;html=1;strokeColor=none;fillColor=none;align=center;verticalAlign=middle;whiteSpace=wrap;rounded=0;" vertex="1" parent="1">
          <mxGeometry x="375" y="980" width="60" height="30" as="geometry" />
        </mxCell>
        <mxCell id="LSdpsTNp0pVtHRdQV1VZ-30" value="&amp;lt;&amp;lt;include&amp;gt;&amp;gt;" style="text;html=1;strokeColor=none;fillColor=none;align=center;verticalAlign=middle;whiteSpace=wrap;rounded=0;rotation=45;" vertex="1" parent="1">
          <mxGeometry x="370" y="1150" width="60" height="30" as="geometry" />
        </mxCell>
        <mxCell id="LSdpsTNp0pVtHRdQV1VZ-31" value="&amp;lt;&amp;lt;include&amp;gt;&amp;gt;" style="text;html=1;strokeColor=none;fillColor=none;align=center;verticalAlign=middle;whiteSpace=wrap;rounded=0;rotation=-45;" vertex="1" parent="1">
          <mxGeometry x="360" y="1050" width="60" height="30" as="geometry" />
        </mxCell>
        <mxCell id="LSdpsTNp0pVtHRdQV1VZ-32" value="" style="endArrow=classic;html=1;rounded=0;exitX=1;exitY=1;exitDx=0;exitDy=0;exitPerimeter=0;entryX=0;entryY=0.5;entryDx=0;entryDy=0;" edge="1" parent="1" source="LSdpsTNp0pVtHRdQV1VZ-18" target="LSdpsTNp0pVtHRdQV1VZ-21">
          <mxGeometry width="50" height="50" relative="1" as="geometry">
            <mxPoint x="520" y="1300" as="sourcePoint" />
            <mxPoint x="570" y="1250" as="targetPoint" />
          </mxGeometry>
        </mxCell>
        <mxCell id="LSdpsTNp0pVtHRdQV1VZ-33" value="" style="endArrow=classic;html=1;rounded=0;exitX=1;exitY=1;exitDx=0;exitDy=0;exitPerimeter=0;entryX=0;entryY=0.5;entryDx=0;entryDy=0;" edge="1" parent="1" target="LSdpsTNp0pVtHRdQV1VZ-22">
          <mxGeometry width="50" height="50" relative="1" as="geometry">
            <mxPoint x="80" y="1090" as="sourcePoint" />
            <mxPoint x="240" y="1215" as="targetPoint" />
          </mxGeometry>
        </mxCell>
        <mxCell id="LSdpsTNp0pVtHRdQV1VZ-34" value="" style="endArrow=classic;html=1;rounded=0;entryX=0;entryY=0.5;entryDx=0;entryDy=0;exitX=1;exitY=0.3333333333333333;exitDx=0;exitDy=0;exitPerimeter=0;" edge="1" parent="1" source="LSdpsTNp0pVtHRdQV1VZ-18" target="LSdpsTNp0pVtHRdQV1VZ-19">
          <mxGeometry width="50" height="50" relative="1" as="geometry">
            <mxPoint x="80" y="1065" as="sourcePoint" />
            <mxPoint x="270" y="1125" as="targetPoint" />
          </mxGeometry>
        </mxCell>
        <mxCell id="LSdpsTNp0pVtHRdQV1VZ-35" value="" style="endArrow=classic;html=1;rounded=0;entryX=0.017;entryY=0.64;entryDx=0;entryDy=0;exitX=0.75;exitY=0.1;exitDx=0;exitDy=0;exitPerimeter=0;entryPerimeter=0;" edge="1" parent="1" source="LSdpsTNp0pVtHRdQV1VZ-18" target="GwhHAT8vdqStquLZt4F1-9">
          <mxGeometry width="50" height="50" relative="1" as="geometry">
            <mxPoint x="80" y="1050" as="sourcePoint" />
            <mxPoint x="240" y="1035" as="targetPoint" />
          </mxGeometry>
        </mxCell>
      </root>
    </mxGraphModel>
  </diagram>
</mxfile>
